<svg width="76" height="55" viewBox="0 0 76 55" fill="none" xmlns="http://www.w3.org/2000/svg">
<circle cx="27.5" cy="27.5" r="27" stroke="#52A921" stroke-opacity="0.4"/>
<path d="M75.3049 27.2985L65.3051 17.3478C64.9459 16.9304 64.3146 16.8818 63.8952 17.2393C63.4757 17.5968 63.4268 18.225 63.7861 18.6423C63.8196 18.6813 63.8561 18.7176 63.8952 18.7509L72.185 27.0099H32.5957C32.0434 27.0099 31.5957 27.4554 31.5957 28.005C31.5957 28.5546 32.0434 29.0001 32.5957 29.0001H72.185L63.8952 37.2491C63.4757 37.6066 63.4268 38.2348 63.7861 38.6522C64.1454 39.0696 64.7766 39.1182 65.1961 38.7607C65.2352 38.7273 65.2717 38.6911 65.3051 38.6522L75.305 28.7015C75.6926 28.3135 75.6926 27.6867 75.3049 27.2985Z" fill="#52A921"/>
</svg>
