<svg width="251" height="40" viewBox="0 0 251 40" fill="none" xmlns="http://www.w3.org/2000/svg">
<path d="M6.36 31H1.2L4.59 10.99H9.72L13.77 21.67L18.06 10.99H23.25L26.25 31H21.06L19.59 19.48L14.76 31H12.69L8.07 19.48L6.36 31ZM40.6812 18.88V17.59H45.4812V31H40.6812V29.53C39.7612 30.81 38.3712 31.45 36.5112 31.45C34.6312 31.45 33.0212 30.74 31.6812 29.32C30.4012 27.96 29.7612 26.32 29.7612 24.4C29.7612 22.2 30.4512 20.41 31.8312 19.03C33.0912 17.77 34.7012 17.14 36.6612 17.14C38.3012 17.14 39.6412 17.72 40.6812 18.88ZM37.7412 21.22C36.9412 21.22 36.2412 21.51 35.6412 22.09C35.0012 22.71 34.6812 23.44 34.6812 24.28C34.6812 25.16 34.9912 25.89 35.6112 26.47C36.2512 27.07 36.9712 27.37 37.7712 27.37C38.5912 27.37 39.3112 27.06 39.9312 26.44C40.5312 25.84 40.8312 25.12 40.8312 24.28C40.8312 23.42 40.5212 22.69 39.9012 22.09C39.2812 21.51 38.5612 21.22 37.7412 21.22ZM49.9875 31V17.59H54.7875V19.78C55.2275 18.94 55.8575 18.32 56.6775 17.92C57.3375 17.56 58.1675 17.38 59.1675 17.38C59.2075 17.38 59.2575 17.39 59.3175 17.41C59.3775 17.41 59.4775 17.42 59.6175 17.44C59.7775 17.44 59.9475 17.44 60.1275 17.44V21.97C59.4875 21.65 58.7975 21.49 58.0575 21.49C57.1175 21.49 56.3875 21.73 55.8675 22.21C55.1475 22.87 54.7875 23.89 54.7875 25.27V31H49.9875ZM63.4629 17.59H68.2629V31H63.4629V17.59ZM63.9429 13.93C63.4229 13.39 63.1629 12.75 63.1629 12.01C63.1629 11.27 63.4229 10.64 63.9429 10.12C64.4829 9.58 65.1229 9.31 65.8629 9.31C66.6029 9.31 67.2329 9.58 67.7529 10.12C68.2929 10.64 68.5629 11.27 68.5629 12.01C68.5629 12.75 68.2929 13.39 67.7529 13.93C67.2329 14.45 66.6029 14.71 65.8629 14.71C65.1229 14.71 64.4829 14.45 63.9429 13.93ZM82.8595 26.68V30.7C81.8395 31.2 80.7295 31.45 79.5295 31.45C77.4095 31.45 75.6495 30.77 74.2495 29.41C72.8695 28.07 72.1795 26.4 72.1795 24.4C72.1795 22.34 72.8995 20.61 74.3395 19.21C75.7595 17.85 77.5595 17.17 79.7395 17.17C80.8195 17.17 81.8595 17.42 82.8595 17.92V21.94C82.0395 21.36 81.2095 21.07 80.3695 21.07C79.4295 21.07 78.6495 21.38 78.0295 22C77.4095 22.62 77.0995 23.39 77.0995 24.31C77.0995 25.19 77.3795 25.94 77.9395 26.56C78.5795 27.24 79.3995 27.58 80.3995 27.58C81.3395 27.58 82.1595 27.28 82.8595 26.68ZM97.1609 18.88V17.59H101.961V31H97.1609V29.53C96.2409 30.81 94.8509 31.45 92.9909 31.45C91.1109 31.45 89.5009 30.74 88.1609 29.32C86.8809 27.96 86.2409 26.32 86.2409 24.4C86.2409 22.2 86.9309 20.41 88.3109 19.03C89.5709 17.77 91.1809 17.14 93.1409 17.14C94.7809 17.14 96.1209 17.72 97.1609 18.88ZM94.2209 21.22C93.4209 21.22 92.7209 21.51 92.1209 22.09C91.4809 22.71 91.1609 23.44 91.1609 24.28C91.1609 25.16 91.4709 25.89 92.0909 26.47C92.7309 27.07 93.4509 27.37 94.2509 27.37C95.0709 27.37 95.7909 27.06 96.4109 26.44C97.0109 25.84 97.3109 25.12 97.3109 24.28C97.3109 23.42 97.0009 22.69 96.3809 22.09C95.7609 21.51 95.0409 21.22 94.2209 21.22ZM106.467 31V17.59H111.267V19.27C112.267 17.95 113.687 17.29 115.527 17.29C117.207 17.29 118.527 17.77 119.487 18.73C120.007 19.25 120.347 19.79 120.507 20.35C120.667 20.91 120.747 21.62 120.747 22.48V31H115.947V24.22C115.947 22.9 115.747 22.03 115.347 21.61C114.987 21.23 114.477 21.04 113.817 21.04C113.097 21.04 112.507 21.25 112.047 21.67C111.527 22.15 111.267 22.86 111.267 23.8V31H106.467ZM132.746 21.22C131.926 21.22 131.206 21.51 130.586 22.09C129.966 22.67 129.656 23.4 129.656 24.28C129.656 25.08 129.966 25.79 130.586 26.41C131.186 27.01 131.906 27.31 132.746 27.31C133.566 27.31 134.276 27.01 134.876 26.41C135.496 25.83 135.806 25.12 135.806 24.28C135.806 23.44 135.496 22.71 134.876 22.09C134.256 21.51 133.546 21.22 132.746 21.22ZM138.716 19.36C140.096 20.7 140.786 22.34 140.786 24.28C140.786 26.22 140.096 27.87 138.716 29.23C137.216 30.71 135.216 31.45 132.716 31.45C130.236 31.45 128.246 30.71 126.746 29.23C125.366 27.87 124.676 26.22 124.676 24.28C124.676 22.34 125.366 20.7 126.746 19.36C128.266 17.88 130.256 17.14 132.716 17.14C135.156 17.14 137.156 17.88 138.716 19.36Z" fill="white"/>
<path d="M161.36 31H154.1V10.99H160.91C164.31 10.99 166.96 11.91 168.86 13.75C170.72 15.53 171.65 17.96 171.65 21.04C171.65 23.92 170.78 26.23 169.04 27.97C168.16 28.85 167.06 29.58 165.74 30.16C164.42 30.72 162.96 31 161.36 31ZM159.29 15.4V26.59H160.34C162.28 26.59 163.74 26.11 164.72 25.15C165.74 24.17 166.25 22.8 166.25 21.04C166.25 19.1 165.73 17.64 164.69 16.66C163.79 15.82 162.41 15.4 160.55 15.4H159.29ZM175.709 17.59H180.509V31H175.709V17.59ZM176.189 13.93C175.669 13.39 175.409 12.75 175.409 12.01C175.409 11.27 175.669 10.64 176.189 10.12C176.729 9.58 177.369 9.31 178.109 9.31C178.849 9.31 179.479 9.58 179.999 10.12C180.539 10.64 180.809 11.27 180.809 12.01C180.809 12.75 180.539 13.39 179.999 13.93C179.479 14.45 178.849 14.71 178.109 14.71C177.369 14.71 176.729 14.45 176.189 13.93ZM195.256 17.59H200.056V30.16C200.056 31.36 199.936 32.39 199.696 33.25C199.476 34.11 198.986 34.93 198.226 35.71C196.806 37.15 194.836 37.87 192.316 37.87C189.696 37.87 187.606 37.08 186.046 35.5C185.226 34.64 184.736 33.71 184.576 32.71H189.916C190.216 33.63 190.966 34.09 192.166 34.09C193.066 34.09 193.776 33.84 194.296 33.34C194.936 32.74 195.256 31.91 195.256 30.85V29.5C194.136 30.68 192.796 31.27 191.236 31.27C189.156 31.27 187.506 30.64 186.286 29.38C185.046 28.1 184.426 26.47 184.426 24.49C184.426 22.37 185.086 20.62 186.406 19.24C187.706 17.88 189.326 17.2 191.266 17.2C192.886 17.2 194.216 17.79 195.256 18.97V17.59ZM192.406 21.19C191.586 21.19 190.876 21.49 190.276 22.09C189.656 22.73 189.346 23.45 189.346 24.25C189.346 25.09 189.656 25.82 190.276 26.44C190.856 27.02 191.576 27.31 192.436 27.31C193.276 27.31 193.996 27.01 194.596 26.41C195.196 25.81 195.496 25.09 195.496 24.25C195.496 23.43 195.176 22.7 194.536 22.06C193.956 21.48 193.246 21.19 192.406 21.19ZM204.564 17.59H209.364V31H204.564V17.59ZM205.044 13.93C204.524 13.39 204.264 12.75 204.264 12.01C204.264 11.27 204.524 10.64 205.044 10.12C205.584 9.58 206.224 9.31 206.964 9.31C207.704 9.31 208.334 9.58 208.854 10.12C209.394 10.64 209.664 11.27 209.664 12.01C209.664 12.75 209.394 13.39 208.854 13.93C208.334 14.45 207.704 14.71 206.964 14.71C206.224 14.71 205.584 14.45 205.044 13.93ZM221.861 21.52H219.131V31H214.331V21.52H212.801V17.59H214.331V13.18H219.131V17.59H221.861V21.52ZM235.245 18.88V17.59H240.045V31H235.245V29.53C234.325 30.81 232.935 31.45 231.075 31.45C229.195 31.45 227.585 30.74 226.245 29.32C224.965 27.96 224.325 26.32 224.325 24.4C224.325 22.2 225.015 20.41 226.395 19.03C227.655 17.77 229.265 17.14 231.225 17.14C232.865 17.14 234.205 17.72 235.245 18.88ZM232.305 21.22C231.505 21.22 230.805 21.51 230.205 22.09C229.565 22.71 229.245 23.44 229.245 24.28C229.245 25.16 229.555 25.89 230.175 26.47C230.815 27.07 231.535 27.37 232.335 27.37C233.155 27.37 233.875 27.06 234.495 26.44C235.095 25.84 235.395 25.12 235.395 24.28C235.395 23.42 235.085 22.69 234.465 22.09C233.845 21.51 233.125 21.22 232.305 21.22ZM244.551 9.13H249.351V31H244.551V9.13Z" fill="url(#paint0_linear)"/>
<defs>
<linearGradient id="paint0_linear" x1="246.286" y1="24.8889" x2="164.479" y2="-4.45654" gradientUnits="userSpaceOnUse">
<stop stop-color="#69C734"/>
<stop offset="1" stop-color="#368808"/>
</linearGradient>
</defs>
</svg>
