<svg width="26" height="26" viewBox="0 0 26 26" fill="none" xmlns="http://www.w3.org/2000/svg">
<rect width="26" height="26" rx="13" fill="#1D1D1D"/>
<path d="M18.8574 7.92969H8.14258C7.51386 7.92969 7 8.44128 7 9.07227V15.9277C7 16.5589 7.51419 17.0703 8.14258 17.0703H18.8574C19.4861 17.0703 20 16.5587 20 15.9277V9.07227C20 8.44113 19.4859 7.92969 18.8574 7.92969ZM18.682 8.69141C18.3126 9.06203 13.9734 13.4153 13.7951 13.5942C13.6462 13.7435 13.3538 13.7436 13.2049 13.5942L8.31803 8.69141H18.682ZM7.76172 15.7877V9.21229L11.0388 12.5L7.76172 15.7877ZM8.31803 16.3086L11.5765 13.0395L12.6654 14.1319C13.1116 14.5796 13.8886 14.5794 14.3346 14.1319L15.4235 13.0395L18.682 16.3086H8.31803ZM19.2383 15.7877L15.9612 12.5L19.2383 9.21229V15.7877Z" fill="white"/>
</svg>
