<svg width="45" height="45" viewBox="0 0 45 45" fill="none" xmlns="http://www.w3.org/2000/svg">
<circle cx="22.5" cy="22.5" r="22.5" fill="#EC015E"/>
<path d="M31.9429 18.5832C31.8966 17.572 31.736 16.8814 31.5012 16.2772C31.2627 15.6433 30.8887 15.0691 30.4055 14.5945C29.931 14.1113 29.3567 13.7371 28.7228 13.4985C28.1184 13.2638 27.428 13.1034 26.4168 13.0574C25.4037 13.011 25.08 13 22.5 13C19.92 13 19.5963 13.011 18.5832 13.0571C17.572 13.1034 16.8816 13.264 16.2772 13.4988C15.6433 13.7373 15.0691 14.1113 14.5945 14.5945C14.1113 15.069 13.7371 15.6432 13.4985 16.2771C13.2638 16.8814 13.1034 17.572 13.0574 18.5831C13.011 19.5963 13 19.9199 13 22.4999C13 25.08 13.011 25.4037 13.0574 26.4168C13.1035 27.4279 13.2641 28.1184 13.4989 28.7228C13.7374 29.3565 14.1114 29.9309 14.5947 30.4053C15.0691 30.8886 15.6435 31.2626 16.2774 31.5011C16.8816 31.736 17.5721 31.8965 18.5834 31.9427C19.5966 31.989 19.9202 31.9999 22.5001 31.9999C25.0801 31.9999 25.4038 31.989 26.4169 31.9427C27.4282 31.8965 28.1186 31.736 28.7229 31.5011C29.999 31.0076 31.0078 29.9988 31.5012 28.7228C31.7362 28.1184 31.8966 27.4279 31.9429 26.4168C31.989 25.4035 32 25.08 32 22.5C32 19.9199 31.989 19.5963 31.9429 18.5832ZM30.2328 26.3389C30.1906 27.2652 30.0358 27.7682 29.9058 28.1029C29.5862 28.9315 28.9314 29.5863 28.1028 29.9059C27.7681 30.036 27.2651 30.1908 26.3388 30.233C25.3373 30.2788 25.0368 30.2883 22.5 30.2883C19.9631 30.2883 19.6627 30.2788 18.6611 30.233C17.7349 30.1908 17.2319 30.036 16.8971 29.9059C16.4845 29.7536 16.1112 29.5108 15.8048 29.1952C15.4892 28.8888 15.2464 28.5156 15.0941 28.1029C14.964 27.7682 14.8092 27.2652 14.767 26.3389C14.7214 25.3373 14.7117 25.0368 14.7117 22.5001C14.7117 19.9634 14.7214 19.663 14.767 18.6612C14.8094 17.7349 14.964 17.2319 15.0941 16.8972C15.2464 16.4845 15.4894 16.1112 15.8048 15.8048C16.1112 15.4892 16.4845 15.2464 16.8972 15.0942C17.2319 14.964 17.7349 14.8094 18.6612 14.767C19.6629 14.7214 19.9634 14.7117 22.5 14.7117H22.4999C25.0365 14.7117 25.337 14.7214 26.3388 14.7672C27.2651 14.8094 27.7679 14.9642 28.1028 15.0942C28.5153 15.2466 28.8886 15.4894 29.1951 15.8048C29.5106 16.1112 29.7534 16.4845 29.9056 16.8972C30.0358 17.2319 30.1906 17.7349 30.2328 18.6612C30.2785 19.6629 30.2882 19.9634 30.2882 22.5C30.2882 25.0368 30.2786 25.3371 30.2328 26.3389Z" fill="white"/>
<path d="M22.4999 17.6211C19.8057 17.6211 17.6216 19.8053 17.6216 22.4995C17.6216 25.1937 19.8057 27.3778 22.4999 27.3778C25.1942 27.3778 27.3783 25.1937 27.3783 22.4995C27.3783 19.8053 25.1942 17.6211 22.4999 17.6211ZM22.4999 25.6661C20.7511 25.666 19.3333 24.2483 19.3334 22.4994C19.3334 20.7506 20.7511 19.3328 22.5 19.3328C24.2489 19.3329 25.6666 20.7506 25.6666 22.4994C25.6666 24.2483 24.2488 25.6661 22.4999 25.6661Z" fill="white"/>
<path d="M28.7112 17.4292C28.7112 18.0587 28.2008 18.5691 27.5713 18.5691C26.9416 18.5691 26.4312 18.0587 26.4312 17.4292C26.4312 16.7995 26.9416 16.2891 27.5713 16.2891C28.2008 16.2891 28.7112 16.7995 28.7112 17.4292Z" fill="white"/>
</svg>
