<svg width="26" height="26" viewBox="0 0 26 26" fill="none" xmlns="http://www.w3.org/2000/svg">
<rect width="26" height="26" rx="13" fill="#1D1D1D"/>
<path d="M13.498 7C10.768 7 8.54688 9.2211 8.54688 11.9512C8.54688 13.7136 9.083 14.4204 11.6593 17.8167C12.1065 18.4062 12.6134 19.0744 13.1934 19.8477C13.2653 19.9436 13.3782 20 13.4981 20C13.618 20 13.7308 19.9435 13.8028 19.8476C14.3793 19.0785 14.884 18.4129 15.3293 17.8255C17.9118 14.4194 18.4492 13.7105 18.4492 11.9512C18.4492 9.2211 16.2281 7 13.498 7ZM14.7224 17.3653C14.3566 17.8477 13.9509 18.3828 13.498 18.985C13.0419 18.379 12.6339 17.8411 12.2661 17.3563C9.76014 14.0527 9.30859 13.4574 9.30859 11.9512C9.30859 9.64111 11.188 7.76172 13.498 7.76172C15.8081 7.76172 17.6875 9.64111 17.6875 11.9512C17.6875 13.4544 17.2348 14.0515 14.7224 17.3653Z" fill="white"/>
<path d="M13.502 9.28516C12.0319 9.28516 10.8359 10.4811 10.8359 11.9512C10.8359 13.4212 12.0319 14.6172 13.502 14.6172C14.972 14.6172 16.168 13.4212 16.168 11.9512C16.168 10.4811 14.972 9.28516 13.502 9.28516ZM13.502 13.8555C12.4519 13.8555 11.5977 13.0012 11.5977 11.9512C11.5977 10.9011 12.4519 10.0469 13.502 10.0469C14.552 10.0469 15.4062 10.9011 15.4062 11.9512C15.4062 13.0012 14.552 13.8555 13.502 13.8555Z" fill="white"/>
</svg>
