<svg width="45" height="45" viewBox="0 0 45 45" fill="none" xmlns="http://www.w3.org/2000/svg">
<path d="M31.214 13.865L11.723 21.0766C10.9387 21.4124 10.6734 22.085 11.5334 22.45L16.5338 23.9746L28.6238 16.8055C29.2839 16.3554 29.9597 16.4755 29.3782 16.9705L18.9945 25.9913L18.6683 29.8089C18.9704 30.3984 19.5236 30.4011 19.8764 30.1081L22.7493 27.5L27.6694 31.035C28.8121 31.6841 29.4339 31.2652 29.6798 30.0755L32.907 15.4136C33.242 13.9491 32.6706 13.3039 31.214 13.865Z" fill="#38A6DB"/>
<path d="M22.5 45C34.9264 45 45 34.9264 45 22.5C45 10.0736 34.9264 0 22.5 0C10.0736 0 0 10.0736 0 22.5C0 34.9264 10.0736 45 22.5 45Z" fill="#38A6DB"/>
<path d="M31.214 13.865L11.723 21.0766C10.9387 21.4124 10.6734 22.085 11.5334 22.45L16.5338 23.9746L28.6238 16.8055C29.2839 16.3554 29.9597 16.4755 29.3782 16.9705L18.9945 25.9913L18.6683 29.8089C18.9704 30.3984 19.5236 30.4011 19.8764 30.1081L22.7493 27.5L27.6694 31.035C28.8121 31.6841 29.4339 31.2652 29.6798 30.0755L32.907 15.4136C33.242 13.9491 32.6706 13.3039 31.214 13.865Z" fill="white"/>
</svg>
